# xmcd
#
# Track frame offsets: 
#        150
#        15811
#        30980
#        44862
#        60529
#        74164
#        91042
#        108485
#        125830
#        143650
#        162794
#        180772
#
# Disc length: 2757 seconds
#
# Revision: 0
# Processed by: cddbd v1.5.2PL0 Copyright (c) Steve Scherf et al.
# Submitted via: ExactAudioCopyFreeDBPlugin 1.0
#
DISCID=970ac30c
DTITLE=Will T Massey - Slow Study
DYEAR=2007
DGENRE=Country
TTITLE0=I'll See You Around
TTITLE1=Homeless Heart
TTITLE2=The Hell You Raised
TTITLE3=On The Sofa Outside
TTITLE4=Highway Hearse
TTITLE5=Slow Study
TTITLE6=Long Distance Love
TTITLE7=I'll Be Gone
TTITLE8=The Last One To Leave
TTITLE9=A Dying Breed
TTITLE10=The Road That Brought Us Here
TTITLE11=Mr. Johnson's Store
EXTD=
EXTT0=
EXTT1=
EXTT2=
EXTT3=
EXTT4=
EXTT5=
EXTT6=
EXTT7=
EXTT8=
EXTT9=
EXTT10=
EXTT11=
PLAYORDER=
